/* XPM */
static char * colect_xpm[] = {
"32 32 247 2",
"  	c #000000",
". 	c #3F2631",
"+ 	c #3F2631",
"@ 	c #3F2631",
"# 	c #3F2631",
"$ 	c #3F2631",
"% 	c #3F2631",
"& 	c #3F2631",
"* 	c #3F2631",
"= 	c #3F2631",
"- 	c #3F2631",
"; 	c #3F2631",
"> 	c #3F2631",
", 	c #3F2631",
"' 	c #3F2631",
") 	c #3F2631",
"! 	c #3F2631",
"~ 	c #3D2531",
"{ 	c #3E242F",
"] 	c #3E2631",
"^ 	c #3D2530",
"/ 	c #3C242F",
"( 	c #3D232E",
"_ 	c #3C2430",
": 	c #462A32",
"< 	c #563335",
"[ 	c #5B3A3D",
"} 	c #54404A",
"| 	c #514251",
"1 	c #543F4A",
"2 	c #5A393D",
"3 	c #5D3636",
"4 	c #5D3637",
"5 	c #3E2531",
"6 	c #573234",
"7 	c #894D3E",
"8 	c #986558",
"9 	c #827680",
"0 	c #757F96",
"a 	c #807580",
"b 	c #956356",
"c 	c #9F5941",
"d 	c #9F5942",
"e 	c #9E5A43",
"f 	c #5F3736",
"g 	c #A25B42",
"h 	c #BA7E68",
"i 	c #A59CA5",
"j 	c #98ABC5",
"k 	c #A69EA6",
"l 	c #BF866E",
"m 	c #CC7A50",
"n 	c #CC7A51",
"o 	c #CB7B53",
"p 	c #5E3635",
"q 	c #A05A41",
"r 	c #BF836C",
"s 	c #B9AEB3",
"t 	c #B3C4D9",
"u 	c #B3C3D9",
"v 	c #BFB7B9",
"w 	c #D6A27F",
"x 	c #E29761",
"y 	c #E29762",
"z 	c #E19864",
"A 	c #5D3535",
"B 	c #C1856E",
"C 	c #C2B6BA",
"D 	c #C0CFE2",
"E 	c #C0CEE2",
"F 	c #CBC3C2",
"G 	c #E1AF88",
"H 	c #ECA56A",
"I 	c #ECA56B",
"J 	c #EBA66D",
"K 	c #9E5941",
"L 	c #C1B5B9",
"M 	c #BFCEE1",
"N 	c #BFCDE1",
"O 	c #CAC2C1",
"P 	c #E0AE87",
"Q 	c #EBA469",
"R 	c #EBA46A",
"S 	c #EAA56C",
"T 	c #BE826B",
"U 	c #B7ACB2",
"V 	c #B2C2D7",
"W 	c #B2C1D7",
"X 	c #BEB5B7",
"Y 	c #D4A17F",
"Z 	c #E09661",
"` 	c #DF9662",
" .	c #9F5A41",
"..	c #B77C67",
"+.	c #A39AA2",
"@.	c #96A9C2",
"#.	c #A49CA4",
"$.	c #BC856C",
"%.	c #C9784F",
"&.	c #C9784E",
"*.	c #C8784F",
"=.	c #A05940",
"-.	c #B37862",
";.	c #978F99",
">.	c #879BB6",
",.	c #968E98",
"'.	c #B07661",
").	c #BE6F4E",
"!.	c #BE7C62",
"~.	c #BD836E",
"{.	c #BF846F",
"].	c #A0583F",
"^.	c #B37761",
"/.	c #968D97",
"(.	c #B2745F",
"_.	c #C07B60",
":.	c #C0A19B",
"<.	c #C0B6BC",
"[.	c #C1B7BD",
"}.	c #C2B7BC",
"|.	c #5E3C3E",
"1.	c #A06C5D",
"2.	c #B88E82",
"3.	c #A3A0AB",
"4.	c #97A9C1",
"5.	c #97A9C2",
"6.	c #9B97A4",
"7.	c #A1776E",
"8.	c #AC8278",
"9.	c #BBB5BE",
"0.	c #B8C6D9",
"a.	c #A4B2C6",
"b.	c #9AA6BA",
"c.	c #3D242F",
"d.	c #3C232E",
"e.	c #5E4851",
"f.	c #A09198",
"g.	c #BFBAC2",
"h.	c #B8BECE",
"i.	c #B4C1D4",
"j.	c #A2A9BB",
"k.	c #807C8C",
"l.	c #858191",
"m.	c #AFB6C7",
"n.	c #A6B1C5",
"o.	c #687288",
"p.	c #474E67",
"q.	c #3D242E",
"r.	c #3C222D",
"s.	c #5F4F5C",
"t.	c #A2A6B7",
"u.	c #C5D3E5",
"v.	c #C4D1E2",
"w.	c #C4CFE0",
"x.	c #C5D0E1",
"y.	c #A7B4CA",
"z.	c #6E809D",
"A.	c #70829F",
"B.	c #A9B6CB",
"C.	c #9CA5B8",
"D.	c #484E65",
"E.	c #1A1F38",
"F.	c #5F4F5B",
"G.	c #A2A6B6",
"H.	c #C5D3E4",
"I.	c #C5D1E3",
"J.	c #C6D1E2",
"K.	c #A8B5CA",
"L.	c #6F809E",
"M.	c #71819F",
"N.	c #584855",
"O.	c #8D90A2",
"P.	c #AAB3C5",
"Q.	c #ADACBB",
"R.	c #AEA9B5",
"S.	c #AFAAB5",
"T.	c #9994A3",
"U.	c #706C81",
"V.	c #77788E",
"W.	c #ABB4C6",
"X.	c #A7B2C5",
"Y.	c #6A7388",
"Z.	c #484F67",
"`.	c #3E252F",
" +	c #4B3C4B",
".+	c #646A82",
"++	c #76788E",
"@+	c #81666E",
"#+	c #875D5D",
"$+	c #875D5E",
"%+	c #7F5557",
"&+	c #72484B",
"*+	c #82666D",
"=+	c #AEADBC",
"-+	c #BBC8DB",
";+	c #A7B3C6",
">+	c #9CA7BA",
",+	c #4A3C4B",
"'+	c #4B3C4C",
")+	c #646A83",
"!+	c #767284",
"~+	c #81524F",
"{+	c #854133",
"]+	c #854134",
"^+	c #864134",
"/+	c #915C54",
"(+	c #A48E93",
"_+	c #AFA9B5",
":+	c #B1AAB6",
"<+	c #B1AAB5",
"[+	c #584957",
"}+	c #8D92A5",
"|+	c #AAA1A9",
"1+	c #AB7362",
"2+	c #AB5A3C",
"3+	c #AB5B3D",
"4+	c #AC5C3F",
"5+	c #AD5D40",
"6+	c #A35C47",
"7+	c #8F5B54",
"8+	c #865B5B",
"9+	c #875C5C",
"0+	c #885D5C",
"a+	c #C4C0C7",
"b+	c #C2998C",
"c+	c #BF846D",
"d+	c #C0866F",
"e+	c #B17B6A",
"f+	c #956661",
"g+	c #865B5C",
"h+	c #5E4E5B",
"i+	c #A2A4B4",
"j+	c #C4CAD9",
"k+	c #C2BDC5",
"l+	c #C0B4B9",
"m+	c #C0B5B9",
"n+	c #C0B5BA",
"o+	c #BBB2B8",
"p+	c #B2AAB4",
"q+	c #ADA7B2",
"r+	c #5E4E5A",
"s+	c #A1A3B3",
"t+	c #C3D0E1",
"u+	c #C2D0E2",
"v+	c #C0CEE1",
"w+	c #C2CFE1",
"x+	c #FFFFFF",
"]+]+]+]+]+]+]+]+]+]+]+]+]+]+]+]+]+]+]+]+]+]+]+]+]+]+]+]+]+]+]+]+",
"]+]+]+]+]+]+]+]+]+]+]+]+]+]+]+]+]+]+]+]+]+]+]+]+]+]+]+]+]+]+]+]+",
"]+]+]+]+]+]+]+]+]+]+]+]+]+]+]+]+]+]+]+]+]+]+]+]+]+]+]+]+]+]+]+]+",
"]+]+{+{+{+{+{+{+{+{+{+{+{+{+{+{+{+{+{+{+{+{+{+{+{+{+{+{+{+{+]+]+",
"]+{+f 6 6 6 6 6 6 6 6 6 6 6 6 6 6 6 6 6 6 6 6 6 6 6 6 6 6 f {+]+",
"{+f 6 . ~ ~ { { { { ~ ~ ~ ~ ~ ~ ~ ~ ~ ~ ~ ~ { { { { ~ ~ . 6 f {+",
"6 6 : ] ^ / ( ( ( ( _ _ _ _ _ _ _ _ _ _ _ _ ( ( ( ( / ^ ] : 6 6 ",
". . ] : < [ } | | 1 2 3 4 4 4 4 4 4 4 4 3 2 1 | | } [ < : ] . . ",
". 5 ~ 6 7 8 9 0 0 a b c d e e e e e e d c b a 0 0 9 8 7 6 ~ 5 . ",
". ~ _ f g h i j j k l m n o o o o o o n m l k j j i h g f _ ~ . ",
". ~ _ p q r s t u v w x y z z z z z z y x w v u t s r q p _ ~ . ",
". ~ _ A c B C D E F G H I J J J J J J I H G F E D C B K A _ ~ . ",
". ~ _ A c B C D E F G H I J J J J J J I H G F E D C B K A _ ~ . ",
". ~ _ A c B L M N O P Q R S S S S S S R Q P O N M L B c A _ ~ . ",
". ~ _ A c B L M N O P Q R S S S S S S R Q P O N M L B c A _ ~ . ",
". ~ _ A c B C D E F G H I J J J J J J I H G F E D C B K A _ ~ . ",
". ~ _ A c B C D E F G H I J J J J J J I H G F E D C B K A _ ~ . ",
". ~ _ p c T U V W X Y Z Z ` ` ` ` ` ` Z Z Y X W V U T c p _ ~ . ",
". ~ _ p  ...+.@.@.#.$.%.&.*.*.*.*.*.*.&.%.$.#.@.@.+... .p _ ~ . ",
". ~ _ p =.-.;.>.>.,.'.).!.~.{.{.{.{.~.!.).'.,.>.>.;.-.=.p _ ~ . ",
". ~ _ p ].^.;.>.>./.(._.:.<.[.}.}.[.<.:._.(./.>.>.;.^.].p _ ~ . ",
". ^ _ |.1.2.3.4.5.6.7.8.9.0.a.b.b.a.0.9.8.7.6.5.4.3.2.1.|._ ^ . ",
". c.d.e.f.g.h.i.i.j.k.l.m.n.o.p.p.o.n.m.l.k.j.i.i.h.g.f.e.d.c.. ",
". q.r.s.t.u.v.w.x.y.z.A.B.C.D.E.E.D.C.B.A.z.y.x.w.v.u.t.s.r.q.. ",
". q.r.F.G.H.I.x.J.K.L.M.B.C.D.E.E.D.C.B.M.L.K.J.x.I.H.G.F.r.q.. ",
". { ( N.O.P.Q.R.S.T.U.V.W.X.Y.Z.Z.Y.X.W.V.U.T.S.R.Q.P.O.N.( { . ",
". `.{  +.+++@+#+$+%+&+*+=+-+;+>+>+;+-+=+*+&+%+$+#+@+++.+,+{ `.. ",
". `.{ '+)+!+~+{+{+]+^+/+(+_+:+<+<+:+_+(+/+^+]+{+{+~+!+)+'+{ `.. ",
". { ( [+}+|+1+2+3+4+5+6+7+8+9+0+0+9+8+7+6+5+4+3+2+1+|+}+[+( { . ",
". c.r.s.t.a+b+r c+d+d+e+f+g+g+9+9+g+g+f+e+d+d+c+r b+a+t.s.r.c.. ",
". c.r.h+i+j+k+l+m+n+n+o+p+q+q+q+q+q+q+p+o+n+n+m+l+k+j+i+h+r.c.. ",
". c.r.r+s+t+u+v+v+v+v+v+w+w+w+w+w+w+w+w+v+v+v+v+v+u+t+s+r+r.c.. "};
