/* XPM */
static char *_6161_958c82e5baa3bed199b570ebb65221736a97e06626391ffcfec840644ba65785[] = {
/* columns rows colors chars-per-pixel */
"32 32 239 2 ",
"   c #351923",
".  c #381E28",
"X  c #391E28",
"o  c #391F29",
"O  c #3A1F2A",
"+  c #3A202A",
"@  c #3A202B",
"#  c #3B202B",
"$  c #3B212C",
"%  c #3B222C",
"&  c #3C222C",
"*  c #3C222D",
"=  c #3D232E",
"-  c #3D242E",
";  c #3D242F",
":  c #3E242F",
">  c #3E2530",
",  c #3F2530",
"<  c #3F2631",
"1  c #412833",
"2  c #412A35",
"3  c #422B35",
"4  c #432B36",
"5  c #422B37",
"6  c #442D38",
"7  c #452E39",
"8  c #452E3A",
"9  c #462F3B",
"0  c #47303C",
"q  c #493744",
"w  c #4A3745",
"e  c #4A3846",
"r  c #4B3946",
"t  c #4C3A48",
"y  c #513C48",
"u  c #513D49",
"i  c #533F4A",
"p  c #533F4B",
"a  c #51404E",
"s  c #54414D",
"d  c #55424E",
"f  c #55434E",
"g  c #55424F",
"h  c #564450",
"j  c #574551",
"k  c #544553",
"l  c #574552",
"z  c #554653",
"x  c #584652",
"c  c #594854",
"v  c #5A4854",
"b  c #5A4855",
"n  c #5A4955",
"m  c #5B4955",
"M  c #5B4A56",
"N  c #5C4B57",
"B  c #5D4B57",
"V  c #5C4C57",
"C  c #5B4B58",
"Z  c #5B4C58",
"A  c #5C4C58",
"S  c #5D4C58",
"D  c #5D4D59",
"F  c #5E4E5A",
"G  c #5E4E5B",
"H  c #5F4E5B",
"J  c #5F4F5B",
"K  c #5F4F5C",
"L  c #60505C",
"P  c #60505D",
"I  c #60515D",
"U  c #625B6C",
"Y  c #68606F",
"T  c #69606F",
"R  c #6A6170",
"E  c #6C6371",
"W  c #676478",
"Q  c #68677A",
"!  c #706674",
"~  c #736976",
"^  c #746A77",
"/  c #766C79",
"(  c #766D7A",
")  c #776E7B",
"_  c #786E7C",
"`  c #786F7C",
"'  c #79707E",
"]  c #79717E",
"[  c #857F8D",
"{  c #888391",
"}  c #898493",
"|  c #898594",
" . c #8A8695",
".. c #8C8897",
"X. c #82869B",
"o. c #82899D",
"O. c #80889F",
"+. c #83889E",
"@. c #83899E",
"#. c #888FA4",
"$. c #8790A5",
"%. c #8890A4",
"&. c #8990A4",
"*. c #8890A5",
"=. c #8990A5",
"-. c #8991A5",
";. c #9598A9",
":. c #979BAC",
">. c #989BAD",
",. c #909DB4",
"<. c #9BA1B3",
"1. c #9FA0B0",
"2. c #9FA1B1",
"3. c #9DA2B3",
"4. c #9DA2B4",
"5. c #97A5BD",
"6. c #96A6BD",
"7. c #97A6BD",
"8. c #97A7BE",
"9. c #97A7BF",
"0. c #99A5BA",
"q. c #98A7BE",
"w. c #98A6BF",
"e. c #98A7BF",
"r. c #98A8BF",
"t. c #A0A1B0",
"y. c #A0A1B1",
"u. c #A0A2B1",
"i. c #A0A2B2",
"p. c #A1A2B2",
"a. c #A0A3B2",
"s. c #A1A3B2",
"d. c #A1A3B3",
"f. c #A2A3B2",
"g. c #A2A4B3",
"h. c #A2A4B4",
"j. c #A2A5B4",
"k. c #A2A5B5",
"l. c #A3A5B5",
"z. c #A3A6B5",
"x. c #A3A6B6",
"c. c #A4A7B6",
"v. c #A4A7B7",
"b. c #A3A8B8",
"n. c #A5A8B8",
"m. c #A4A9B9",
"M. c #A6A9B9",
"N. c #A6ABBB",
"B. c #A7ABBB",
"V. c #A6ABBC",
"C. c #A7ACBC",
"Z. c #A8ACBC",
"A. c #A8ADBD",
"S. c #A9ADBD",
"D. c #AAAFBF",
"F. c #99A8C0",
"G. c #9BABC3",
"H. c #AAAFC0",
"J. c #ABAFC0",
"K. c #A1B0C5",
"L. c #A6B2C6",
"P. c #ABB0C0",
"I. c #ABB1C1",
"U. c #ACB1C1",
"Y. c #ACB1C2",
"T. c #ACB2C2",
"R. c #ADB2C3",
"E. c #ADB3C3",
"W. c #AEB4C4",
"Q. c #A3B2C8",
"!. c #A6B5CB",
"~. c #A6B5CC",
"^. c #AEB7C9",
"/. c #AFB8CA",
"(. c #AFB9CC",
"). c #AFBACC",
"_. c #B0BACC",
"`. c #B2BFD2",
"'. c #B3BFD2",
"]. c #B2BFD3",
"[. c #B2C0D3",
"{. c #B3C0D3",
"}. c #B4C1D4",
"|. c #B4C1D5",
" X c #B4C2D5",
".X c #B5C2D5",
"XX c #B6C2D5",
"oX c #B6C4D7",
"OX c #B8C1D1",
"+X c #B8C1D2",
"@X c #B9C2D2",
"#X c #B9C2D3",
"$X c #BAC3D5",
"%X c #B8C5D7",
"&X c #BBC5D6",
"*X c #BCC5D6",
"=X c #BCC6D6",
"-X c #BCC6D7",
";X c #B9C5D8",
":X c #B9C6D9",
">X c #BAC7DA",
",X c #BDC7D8",
"<X c #BAC8DA",
"1X c #BBC8DB",
"2X c #BFC9DA",
"3X c #BECADB",
"4X c #C0CBDD",
"5X c #C0CCDD",
"6X c #C1CCDD",
"7X c #C1CDDD",
"8X c #C2CCDD",
"9X c #C2CDDD",
"0X c #C1CCDE",
"qX c #C1CDDE",
"wX c #C2CDDE",
"eX c #C2CDDF",
"rX c #C1CEDF",
"tX c #C2CEDF",
"yX c #C3CEDF",
"uX c #C3CEE0",
"iX c #C2CFE0",
"pX c #C3CFE0",
"aX c #C3CFE1",
"sX c #C4CFE0",
"dX c #C4CFE1",
"fX c #C4D0E0",
"gX c #C4D0E1",
"hX c #C5D0E1",
"jX c #C4D0E2",
"kX c #C5D0E2",
"lX c #C4D1E2",
"zX c #C5D1E2",
"xX c #C5D1E3",
"cX c #C5D2E3",
"vX c #C6D2E3",
"bX c #C6D2E4",
"nX c #C7D3E4",
"mX c #C7D4E5",
"MX c None",
/* pixels */
"MXMXMXMXMXMXMXMXMXMXMXMXMXMXMXMXMXMXMXMXMXMXMXMXMXMXMXMXMXMXMXMX",
"MXMXMXMXMXMXMXMXMXMXMXMXMXMXMXMXMXMXMXMXMXMXMXMXMXMXMXMXMXMXMXMX",
"MXMXMXMXMXMXMXMX< < < < < < < < < < < < < < < < MXMXMXMXMXMXMXMX",
"MXMXMXMXMXMXMXMX< < : : ; ; ; ; ; ; ; ; : : < < MXMXMXMXMXMXMXMX",
"MXMXMXMXMXMX< < < , : = * * * * * * * * = : , < < < MXMXMXMXMXMX",
"MXMXMXMXMXMX< > : 5 t z Z F F F F F F Z z t 5 : > < MXMXMXMXMXMX",
"MXMXMXMX< < < : & e Q o.>.h.g.d.d.g.h.>.o.Q e & : < < < MXMXMXMX",
"MXMXMXMX< < , 5 r U *.!.>XgXfXpXpXfXgX>X!.*.U r 5 , < < MXMXMXMX",
"MXMXMXMX< > : t Q $.L.;X4XeXeXeXeXeXeX4X;XL.$.Q t : > < MXMXMXMX",
"MXMXMXMX< : = k @.!.;XwXeXeXeX0X4X4X0XuXsX<X~.+.k = : < MXMXMXMX",
"MXMXMXMX< ; * C :.>X5XwXyXpXpXtX6X6XtXgXgXiX1X:.C * ; < MXMXMXMX",
"MXMXMXMX< ; * G h.gXpX+XA.y.y.S.#X#XS.y.y.J.-Xj.J * ; < MXMXMXMX",
"MXMXMXMX< ; * G h.xXlXA./ n n ) P.P.) n n ` U.v.L * ; < MXMXMXMX",
"MXMXMXMX< ; * F d.xXxXu.n     A z.z.A     V z.v.P * ; < MXMXMXMX",
"MXMXMXMX< ; * F d.xXxXu.n     A z.z.A     V z.v.P * ; < MXMXMXMX",
"MXMXMXMX< ; * F d.lXjXA./ M N ' R.R.' N M ` I.x.L * ; < MXMXMXMX",
"MXMX< < < - * F d.aXyX+XA.p.j.Y.-X-XY.j.p.D.&Xh.H * - < < < MXMX",
"MXMX< > ; & % F d.pXwXqXpX*XU.l.d.d.l.U.=XxXjXd.F % & ; > < MXMX",
"< < < > = # $ F d.pXwXeXdXH._ D D D D _ H.bXxXd.F $ # = > < < < ",
"< , > 0 j d 3 V s.gXtXeXpXi.N . . . . N i.cXvXs.V 3 d j 0 > , < ",
"< : = x ..} p v 2.gXtXeXpXa.S o X X o S a.cXvX2.v p } ..x = : < ",
"< - * I M.T.( ! 3.%X3XtXpXu.N 3 d d 3 N i.rX>X3.! ( T.M.I * - < ",
"< - * K x.,XP.4.0.K.XXyXdX1.c p } } p b t.:XQ.0.4.P.,Xx.K * - < ",
"< ; * F d.zXcX.X9.6.`.yXpXB.~ / U.U./ ^ Z..Xr.9..XcXzXd.F * ; < ",
"< ; * F d.gXkX|.r.8.'.9XqXOXZ.S.$X$XS.Z.@X{.r.r.|.kXgXd.F * ; < ",
"< - * H k.vXgX^.#.&.(.pXwXwXpXpXwXwXpXgXpX/.&.%.^.gXvXk.H * - < ",
"< - * J x.mXcXb.T R V.cXpX7XyXyX7X7XyXgXgXm.T T b.cXmXx.J * - < ",
"< : = h } E.2Xd.M u [ N.).[.].`.`.`.`. XoX;.l m d.2XE.} h = : < ",
"< , > 7 s ] W.n.H 1 y R =.e.w.5.5.5.5.F.G.X.a S c.W.] s 7 > , < ",
"< < < = @ g |  .j 4 i E -.r.q.7.7.8.q.,.O.W w h | | g @ = < < < ",
"MXMX< > ; 8 h f 6 f { C._.{.'.'.'.}..X<.Y q 2 9 h h 8 ; > < MXMX",
"MXMX< < < > * + $ K v.nXdX8X8X8X8XsXhXf.B O = > * * > < < < MXMX"
};
