/* XPM */
static char *_9547_e512e751a6584779707c83df6054afa960688cacc4597f321aef87285ec77a7a[] = {
/* columns rows colors chars-per-pixel */
"32 32 201 2 ",
"   c #505E7A",
".  c #51607C",
"X  c #53627E",
"o  c #485570",
"O  c #313852",
"+  c #252A43",
"@  c #262B44",
"#  c #62718C",
"$  c #5C6A85",
"%  c #4F5C77",
"&  c #3F4964",
"*  c #2E354E",
"=  c #252942",
"-  c #8192AB",
";  c #6D7B94",
":  c #454E68",
">  c #2D334D",
",  c #282D46",
"<  c #242942",
"1  c #242841",
"2  c #76849D",
"3  c #616D86",
"4  c #394059",
"5  c #232740",
"6  c #2B3049",
"7  c #404861",
"8  c #3F4861",
"9  c #3C445E",
"0  c #343D56",
"q  c #303852",
"w  c #2C314A",
"e  c #232841",
"r  c #22263F",
"t  c #373D56",
"y  c #616B84",
"u  c #75849D",
"i  c #74839C",
"p  c #697891",
"a  c #53607B",
"s  c #46536E",
"d  c #373E57",
"f  c #4F5972",
"g  c #717F99",
"h  c #808EA7",
"j  c #7D869D",
"k  c #7B8197",
"l  c #7C8298",
"z  c #70768C",
"x  c #595E76",
"c  c #4C5169",
"v  c #616C85",
"b  c #687793",
"n  c #5E667E",
"m  c #564F60",
"M  c #534351",
"N  c #534452",
"B  c #4F404F",
"V  c #483947",
"C  c #433443",
"Z  c #808FA8",
"A  c #5E667F",
"S  c #474459",
"D  c #402D3B",
"F  c #3C222D",
"G  c #3C232E",
"H  c #3B222E",
"J  c #3D242F",
"K  c #3E2632",
"L  c #3E242F",
"P  c #3C242F",
"I  c #3B232E",
"U  c #74829B",
"Y  c #7A8096",
"T  c #534350",
"R  c #3D222C",
"E  c #422731",
"W  c #482932",
"Q  c #502D33",
"!  c #5A3536",
"~  c #5E3837",
"^  c #3D222D",
"/  c #5C3033",
"(  c #763F38",
")  c #935340",
"_  c #A15D44",
"`  c #A05C44",
"'  c #424A63",
"]  c #7F8DA4",
"[  c #868CA0",
"{  c #564755",
"}  c #3C222E",
"|  c #3C232F",
" . c #502E33",
".. c #753E38",
"X. c #934E3E",
"o. c #A75C43",
"O. c #B06346",
"+. c #B06246",
"@. c #AF6246",
"#. c #222740",
"$. c #4A5169",
"%. c #96A1B6",
"&. c #9DA0B1",
"*. c #5E4E5B",
"=. c #3B212D",
"-. c #5A3436",
";. c #934F3E",
":. c #88473B",
">. c #88483B",
",. c #89483B",
"<. c #272C46",
"1. c #2B324C",
"2. c #4F5871",
"3. c #8D98AE",
"4. c #9193A5",
"5. c #5A4A57",
"6. c #3B222D",
"7. c #3A222E",
"8. c #5F3837",
"9. c #A25D44",
"0. c #723936",
"q. c #733936",
"w. c #743A36",
"e. c #2D344D",
"r. c #3E4863",
"t. c #525F7A",
"y. c #65748E",
"u. c #63677D",
"i. c #4B3B49",
"p. c #3B232F",
"a. c #743936",
"s. c #753A36",
"d. c #49546F",
"f. c #54637F",
"g. c #51607D",
"h. c #4B5068",
"j. c #433342",
"k. c #763B36",
"l. c #4E5C77",
"z. c #5B6A86",
"x. c #595D75",
"c. c #473847",
"v. c #743A35",
"b. c #753A34",
"n. c #763A34",
"m. c #272D46",
"M. c #2C334D",
"N. c #6C7B95",
"B. c #4F404E",
"V. c #743935",
"C. c #753933",
"Z. c #763933",
"A. c #3F4760",
"S. c #75839D",
"D. c #534453",
"F. c #AF6145",
"G. c #89473A",
"H. c #763F3D",
"J. c #794C4C",
"K. c #7B5355",
"L. c #74829C",
"P. c #AF6144",
"I. c #894639",
"U. c #784B4D",
"Y. c #81727F",
"T. c #87879A",
"R. c #AE6044",
"E. c #884638",
"W. c #7A5255",
"Q. c #868699",
"!. c #8EA3BE",
"~. c #3A212D",
"^. c #754A4C",
"/. c #766D7D",
"(. c #788198",
"). c #AF6245",
"_. c #8A483B",
"`. c #6B3C3C",
"'. c #584049",
"]. c #4F4251",
"[. c #6A3534",
"{. c #542C30",
"}. c #48272F",
"|. c #713835",
" X c #6A3533",
".X c #673433",
"XX c #AE6246",
"oX c #87473B",
"OX c #5E3737",
"+X c #B36547",
"@X c #97513F",
"#X c #87463B",
"$X c #9F5B44",
"%X c #BC6B49",
"&X c #B26447",
"*X c #AC6045",
"=X c #5D3737",
"-X c #C06E4B",
";X c #C06F4B",
":X c #BF6E4B",
">X c white",
/* pixels */
"  . X o O + + @ @ @ @ @ @ @ @ @ @ @ @ @ @ @ @ @ @ + + O o X .   ",
"# $ % & * + = = = = = = = = + + + + = = = = = = = = + * & % $ # ",
"- ; : > , + < 1 1 1 1 1 1 1 + + + + 1 1 1 1 1 1 1 < + , > : ; - ",
"2 3 4 5 5 6 4 7 8 8 8 8 8 9 0 q q 0 9 8 8 8 8 8 7 4 6 5 5 4 3 2 ",
"7 4 w e r t y 2 u i i u u p a s s a p u u i i u 2 y t r e w 4 7 ",
"1 1 + 6 d f g h j k k l l z x c c x z l l k k j h g f d 6 + 1 1 ",
"= 1 < 4 v g b n m M M N N B V C C V B N N M M m n b g v 4 < 1 = ",
"@ = 1 7 2 Z A S D F F G H H J J J J H H G F F D S A Z 2 7 1 = @ ",
"@ = 1 7 u j m D K L J P I I P P P P I I P J L K D m j u 7 1 = @ ",
"@ = 1 8 U Y T R L E W Q ! ~ ~ ~ ~ ~ ~ ! Q W E L R T Y U 8 1 = @ ",
"@ = 1 8 U Y M ^ J W / ( ) _ _ ` ` _ _ ) ( / W J ^ M Y U 8 1 = @ ",
"@ < 5 ' ] [ { } |  ...X.o.O.+.@.@.+.O.o.X... .| } { [ ] ' 5 < @ ",
"@ < #.$.%.&.*.=.H -.) o.;.:.>.,.,.>.:.;.o.) -.H =.*.&.%.$.#.< @ ",
"@ <.1.2.3.4.5.6.7.8.9.+.:.0.q.w.w.q.0.:.+.9.8.7.6.5.4.3.2.1.<.@ ",
"+ e.r.t.y.u.i.G p.8._ @.:.q.a.s.s.a.q.:.@._ 8.p.G i.u.y.t.r.e.+ ",
"= O d.f.g.h.j.J P ~ ` @.,.w.s.k.k.s.w.,.@.` ~ P J j.h.g.f.d.O = ",
"= O d.f.g.h.j.J P ~ ` @.,.w.s.k.k.s.w.,.@.` ~ P J j.h.g.f.d.O = ",
"+ e.r.l.z.x.c.| | ~ ` @.,.v.b.n.n.b.v.,.@.` ~ | | c.x.z.l.r.e.+ ",
"@ m.M.: N.z B.G p.~ ` @.,.V.C.Z.Z.C.V.,.@.` ~ p.G B.z N.: M.m.@ ",
"@ < e A.S.l D.H I ~ ` F.G.H.J.K.K.J.H.G.F.` ~ I H D.l S.A.e < @ ",
"@ < e A.L.k N H I ~ ` P.I.U.Y.T.T.Y.U.I.P.` ~ I H N k L.A.e < @ ",
"@ < 5 ' ] [ { 6.H ~ ` R.E.W.Q.!.!.Q.W.E.R.` ~ H 6.{ [ ] ' 5 < @ ",
"@ < #.$.%.&.*.~.7.~ ` R.E.W.Q.!.!.Q.W.E.R.` ~ 7.~.*.&.%.$.#.< @ ",
"@ <.1.2.3.4.5.6.H ~ ` P.I.^./.(.(./.^.I.P.` ~ H 6.5.4.3.2.1.<.@ ",
"+ e.r.t.y.u.i.G p.~ ` )._.`.'.].].'.`._.).` ~ p.G i.u.y.t.r.e.+ ",
"= O d.f.g.h.j.J P ~ ` @._.[.{.}.}.{.[._.@.` ~ P J j.h.g.f.d.O = ",
"= O d.f.g.h.j.J P ~ ` @.,.|. X.X.X X|.,.@.` ~ P J j.h.g.f.d.O = ",
"+ e.r.l.z.x.c.| | ~ ` @.:.a.s.k.k.s.a.:.@.` ~ | | c.x.z.l.r.e.+ ",
"@ m.M.: N.z B.G p.~ ` XXoXq.a.s.s.a.q.oXXX` ~ p.G B.z N.: M.m.@ ",
"@ < e A.S.l D.H I OX` +X@X#X#X:.:.#X#X@X+X` OXI H D.l S.A.e < @ ",
"@ < e A.S.l D.H I OX$X%X&X*X*X*X*X*X*X&X%X$XOXI H D.l S.A.e < @ ",
"@ = 1 8 i k N H I =X$X-X;X:X:X:X:X:X:X;X-X$X=XI H N k i 8 1 = @ "
};
