/* XPM */
static char *_0417_91a4b3174f2c503d6a72c77a0d3ce94c182a0a8118603035423da5cc438fc2d2[] = {
/* columns rows colors chars-per-pixel */
"32 32 128 2 ",
"   c #3C232E",
".  c #25263E",
"X  c #2A273D",
"o  c #2C283D",
"O  c #332637",
"+  c #3C2632",
"@  c #332738",
"#  c #422731",
"$  c #432B37",
"%  c #492A33",
"&  c #402D3B",
"*  c #502D32",
"=  c #5C3436",
"-  c #5E3837",
";  c #5A3739",
":  c #5B393A",
">  c #673332",
",  c #6C3634",
"<  c #633937",
"1  c #6A3B3C",
"2  c #723835",
"3  c #783C37",
"4  c #753F39",
"5  c #7E4238",
"6  c #1F2844",
"7  c #232740",
"8  c #252A43",
"9  c #2A2B42",
"0  c #2C334C",
"q  c #3F3645",
"w  c #2F3751",
"e  c #303751",
"r  c #333A54",
"t  c #433443",
"y  c #4B3742",
"u  c #473847",
"i  c #4B3945",
"p  c #4D3C4A",
"a  c #503B43",
"s  c #563F4A",
"d  c #3C445D",
"f  c #3F4760",
"g  c #3F4862",
"h  c #4F404E",
"j  c #4D4353",
"k  c #45445A",
"l  c #534452",
"z  c #5A4A57",
"x  c #5E4E5B",
"c  c #644546",
"v  c #694847",
"b  c #6B4D4F",
"n  c #764B4D",
"m  c #7D5148",
"M  c #795357",
"N  c #404760",
"B  c #424A63",
"V  c #484F66",
"C  c #454E68",
"Z  c #564F60",
"A  c #485067",
"S  c #45526D",
"D  c #4A536C",
"F  c #495670",
"G  c #4F5A75",
"H  c #4F5E7A",
"J  c #595E75",
"K  c #515E7A",
"L  c #625A6B",
"P  c #53617D",
"I  c #5E667F",
"U  c #63677D",
"Y  c #6B697B",
"T  c #756E7F",
"R  c #84443A",
"E  c #88473A",
"W  c #8A493C",
"Q  c #934E3E",
"!  c #97513F",
"~  c #8E5444",
"^  c #935340",
"/  c #975945",
"(  c #9C5B45",
")  c #9C5E48",
"_  c #8D5A52",
"`  c #A25C44",
"'  c #AF6145",
"]  c #A5634B",
"[  c #B16346",
"{  c #B1684D",
"}  c #BC6C4A",
"|  c #B2745E",
" . c #B57B67",
".. c #5B6984",
"X. c #616C85",
"o. c #63718C",
"O. c #68758E",
"+. c #70768C",
"@. c #687793",
"#. c #6C7B94",
"$. c #707D97",
"%. c #727F99",
"&. c #807280",
"*. c #8B7C84",
"=. c #7B8197",
"-. c #74829B",
";. c #7C8399",
":. c #7E8BA2",
">. c #968186",
",. c #85879C",
"<. c #838BA1",
"1. c #808FA8",
"2. c #8891A7",
"3. c #8292AB",
"4. c #8B95AA",
"5. c #8D98AE",
"6. c #9193A5",
"7. c #9B96A2",
"8. c #8B9BB4",
"9. c #8F9FB8",
"0. c #939EB2",
"q. c #8FA0B9",
"w. c #96A1B6",
"e. c #9DA0B1",
"r. c #90A0BA",
"t. c #9DADC4",
"y. c #ACB7CB",
"u. c #BCC8DB",
/* pixels */
"K P P F w 8 8 8 8 8 8 8 9 8 8 8 8 9 9 8 8 8 8 8 8 8 8 r F P H H ",
"o...H g 0 8 8 8 8 8 8 8 8 8 8 8 8 8 8 8 8 8 8 8 8 8 8 w g H ..o.",
"3.#.C 0 8 8 8 8 . 8 . 8 8 8 8 8 8 6 8 8 8 8 8 8 8 8 8 8 0 C #.3.",
"-.X.d . 8 9 d g g g g B g d r r w d d g B d d d k d 8 8 . d o.-.",
"B r 0 8 7 r X.;.-.-.-.-.-.O.P S S H #.-.=.-.-.-.-.X.r 8 7 0 r B ",
"8 7 8 0 r G -.3.;.=.;.;.;.+.J D A P O.,.8.9.q.9.3.$.G r 0 8 . 8 ",
"8 8 8 r ..-.@.I Z l l l l h u t & i h L ;.q.r.3.#.O.-.X.r 8 8 8 ",
"8 8 7 f :.:.I k &           +   #     i Y ;.-.#.o.#.3.-.B 7 8 8 ",
"9 8 7 B ;.;.Z & #   #       +         & p j k F #.3.8.-.g 8 8 8 ",
"8 8 7 f %.,.l   + # % * = < = = * % # + + O . d -.q.9.%.d 8 8 8 ",
"8 8 8 f %.%.s   + % = 2 ^ ` ` Q 5 = % + o . . d %.9.9.$.d 8 8 8 ",
"8 8 7 B 1.<.l     * 3 Q ` [ [ ` W 4 * @ o o 8 k :.t.t.:.B 7 8 9 ",
"8 8 7 S 0.0.z     = ^ ` ! E ~ Q ` ~ i o @ O . A w.u.u.0.V 8 8 8 ",
"8 9 0 F 5.7.z     = ` ' E 2 2 E [ ` a o @ O X V 2.y.y.4.D 0 8 8 ",
"8 w g G O.U u     - ` ' E 2 2 E [ ` : O o o 9 r ..#.#.o.P g 0 8 ",
"8 r F ....C t + + = ` ' E 2 2 E ' ( : O o o 8 e S K H K P D r 8 ",
"8 r S P P A t     = ` [ W 2 2 E ' ) i o @ @ o 0 S H H H P S r . ",
"8 0 g H ..J u     < ` [ W 4 n / { ) a o @ @ o d H o.o...H g 0 8 ",
"8 8 0 C #.O.h     = ` ` W n +.>.| ( - O o o 8 d o.:.3.#.S 0 8 8 ",
"8 8 8 g ;.=.l     < ` ' E M ,.7. .( ; O o o 8 d -.r.r.-.d 8 8 9 ",
"8 8 8 g -.;.l     - ( ' E m ,.7. .( : . O @ . d -.9.9.-.d 8 8 8 ",
"8 8 . C <.,.z     - ` ' E n T *.| ( i o @ O X B ;.t.t.:.g 8 8 8 ",
"8 8 . S w.e.z     - ( [ W 1 h b ] ` ; O o . 8 A r.u.u.0.A 8 8 8 ",
"8 9 0 F 5.2.z     - ` ' W > * < ] ` - O o 8 8 B 2.y.y.4.D 0 8 8 ",
"8 0 g H o.U p     - ( ' W , > 5 ' ] h . 8 8 8 r I -.#.o.P g 0 8 ",
"8 r S ..P A t +   - ` ' R 5 R ! / m & 8 8 8 8 r S H H H P D r 8 ",
"8 r D P K V t     - ` ' R 5 ` / c q 0 8 8 8 8 r S P H H P D e 8 ",
"8 0 g H ..J u     - ` [ ! Q / m q 6 8 8 8 8 8 r H ..o...H g 0 8 ",
"8 8 0 C $.+.p +   - ! } { / c q 9 8 9 9 8 8 8 d O.1.3.O.C 0 8 8 ",
"9 8 7 f -.;.l +   - ] } ] m q 8 8 8 8 8 8 8 8 d -.r.r.-.d 8 8 8 ",
"8 8 7 f %.,.l     - ` ] v q 9 8 8 8 0 8 8 8 . d -.r.r.-.d 8 8 8 ",
"8 8 7 B -.%.l     - ` / h 6 6 6 0 8 8 8 8 8 8 d -.9.q.-.d 8 8 8 "
};
