/* XPM */
static char *_8758_d4d8b1fa05246e059be211bc7a4928301a58a526884979ac9c1ee6e6444be043[] = {
/* columns rows colors chars-per-pixel */
"32 32 254 2 ",
"   c #505E7A",
".  c #51607C",
"X  c #53627E",
"o  c #485570",
"O  c #313852",
"+  c #252A43",
"@  c #262B44",
"#  c #62718C",
"$  c #5C6A85",
"%  c #4F5C77",
"&  c #3F4964",
"*  c #2E354E",
"=  c #252942",
"-  c #8192AB",
";  c #6D7B94",
":  c #454E68",
">  c #2D334D",
",  c #282D46",
"<  c #242942",
"1  c #242841",
"2  c #76849D",
"3  c #616D86",
"4  c #394059",
"5  c #232740",
"6  c #2B3049",
"7  c #404861",
"8  c #3F4861",
"9  c #3C445D",
"0  c #343C56",
"q  c #303751",
"w  c #343B55",
"e  c #3B435C",
"r  c #3E465F",
"t  c #3F4760",
"y  c #2C314A",
"u  c #232841",
"i  c #22263F",
"p  c #373D56",
"a  c #616B84",
"s  c #75849D",
"d  c #74839C",
"f  c #697791",
"g  c #525F79",
"h  c #45516C",
"j  c #525E78",
"k  c #68758F",
"l  c #74819A",
"z  c #738099",
"x  c #74829B",
"c  c #76839C",
"v  c #616C85",
"b  c #373E57",
"n  c #4F5972",
"m  c #717F99",
"M  c #808EA7",
"N  c #7D869D",
"B  c #7B8197",
"V  c #7C8197",
"C  c #7C8298",
"Z  c #717A91",
"A  c #5D6984",
"S  c #51607D",
"D  c #52607C",
"F  c #8190AA",
"G  c #90A0B9",
"H  c #8F9FB8",
"J  c #8C9CB5",
"K  c #8495AE",
"L  c #6F7D96",
"P  c #4E5871",
"I  c #2B314A",
"U  c #687793",
"Y  c #5E667E",
"T  c #564F60",
"R  c #534351",
"E  c #534451",
"W  c #534B5D",
"Q  c #535B74",
"!  c #52627F",
"~  c #52617E",
"^  c #8393AD",
"/  c #6B7A95",
"(  c #65738E",
")  c #707D97",
"_  c #808FA8",
"`  c #5E667F",
"'  c #474459",
"]  c #402D3B",
"[  c #3C222D",
"{  c #3B222D",
"}  c #412E3C",
"|  c #49475B",
" . c #4B536C",
".. c #48526D",
"X. c #515E78",
"o. c #62708B",
"O. c #6A7A95",
"+. c #75839C",
"@. c #404760",
"#. c #3E2632",
"$. c #3D232E",
"%. c #3C232E",
"&. c #402834",
"*. c #43303E",
"=. c #3F3547",
"-. c #35374E",
";. c #3D455E",
":. c #3D445D",
">. c #4D5770",
",. c #8B9DB6",
"<. c #7A8096",
"1. c #534350",
"2. c #3D222C",
"3. c #3D242E",
"4. c #472A33",
"5. c #563336",
"6. c #3F2530",
"7. c #3F252F",
"8. c #392634",
"9. c #2B293E",
"0. c #242A43",
"q. c #22253E",
"w. c #8FA0B9",
"e. c #8E9FB8",
"r. c #727F98",
"t. c #583436",
"y. c #8A4F40",
"u. c #3D2430",
"i. c #3E2430",
"p. c #392635",
"a. c #252943",
"s. c #23263F",
"d. c #3E455E",
"f. c #728099",
"g. c #424A63",
"h. c #7F8DA4",
"j. c #868CA0",
"k. c #564755",
"l. c #3B222E",
"z. c #603838",
"x. c #A45E45",
"c. c #3C2430",
"v. c #3E2530",
"b. c #392736",
"n. c #2C2A3F",
"m. c #252B44",
"M. c #424962",
"N. c #7D8AA1",
"B. c #9DADC4",
"V. c #414861",
"C. c #222740",
"Z. c #4A5169",
"A. c #96A1B6",
"S. c #9DA0B1",
"D. c #5E4E5B",
"F. c #3A212D",
"G. c #3A222E",
"H. c #603837",
"J. c #A35E45",
"K. c #232741",
"L. c #494F67",
"P. c #939EB2",
"I. c #BCC8DB",
"U. c #939DB2",
"Y. c #484F66",
"T. c #272C46",
"R. c #2B324C",
"E. c #4F5871",
"W. c #8D98AE",
"Q. c #9193A5",
"!. c #5A4A57",
"~. c #5F3837",
"^. c #A25D45",
"/. c #454C63",
"(. c #8891A7",
"). c #ACB7CB",
"_. c #8B95AA",
"`. c #4E566E",
"'. c #2D344D",
"]. c #3E4863",
"[. c #525F7A",
"{. c #65748E",
"}. c #63677D",
"|. c #4B3B49",
" X c #3B232F",
".X c #5C6881",
"XX c #64728B",
"oX c #49546F",
"OX c #54637F",
"+X c #4B5068",
"@X c #433342",
"#X c #3D242F",
"$X c #3C242F",
"%X c #4F5E7A",
"&X c #515F7B",
"*X c #54627E",
"=X c #2B2A3F",
"-X c #4E5C77",
";X c #5B6A86",
":X c #595D75",
">X c #473847",
",X c #3C232F",
"<X c #A15C44",
"1X c #5E3636",
"2X c #3B2734",
"3X c #31293C",
"4X c #2A2A41",
"5X c #272B43",
"6X c #525E79",
"7X c #62708C",
"8X c #61708C",
"9X c #5A6884",
"0X c #4E5A76",
"qX c #272D46",
"wX c #2C334D",
"eX c #6C7B95",
"rX c #70768C",
"tX c #4F404E",
"yX c #5E3635",
"uX c #3B2735",
"iX c #342839",
"pX c #68758E",
"aX c #8091AA",
"sX c #8090A9",
"dX c #6B7992",
"fX c #444D67",
"gX c #75839D",
"hX c #534453",
"jX c #3B232E",
"kX c #A6644D",
"lX c #6D4E50",
"zX c #4A3A49",
"xX c #422C39",
"cX c #402530",
"vX c #3A2736",
"bX c #3F465F",
"nX c #73819A",
"mX c #74829C",
"MX c #534452",
"NX c #5E3736",
"BX c #A05B42",
"VX c #B0745E",
"CX c #8D7E85",
"ZX c #696A7E",
"AX c #4C3C4A",
"SX c #3E242E",
"DX c #A05A41",
"FX c #B67C67",
"GX c #9D97A2",
"HX c #7A839B",
"JX c #514453",
"KX c #3E232E",
"LX c #3E242F",
"PX c white",
/* pixels */
"  . X o O + + @ @ @ @ @ @ @ @ @ @ @ @ @ @ @ @ @ @ + + O o X .   ",
"# $ % & * + = = = = = = = = + + + + = = = = = = = = + * & % $ # ",
"- ; : > , + < 1 1 1 1 1 1 1 + + + + 1 1 1 1 1 1 1 < + , > : ; - ",
"2 3 4 5 5 6 4 7 8 8 8 8 8 9 0 q q w e r r r r t t 4 6 5 5 4 3 2 ",
"7 4 y u i p a 2 s d d s s f g h h j k l l z z x c v p i u y 4 7 ",
"1 1 + 6 b n m M N B B V C Z A S D # F G G H H J K L P b I + 1 1 ",
"= 1 < 4 v m U Y T R R E R W Q ! ~ # F G G G G ^ / ( ) v 4 < 1 = ",
"@ = 1 7 2 _ ` ' ] [ { { [ } |  ...X.k l l z z ; o.O.K +.@.1 = @ ",
"@ = 1 7 s N T ] #.$.%.%.$.&.*.=.-.w e r r ;.:.>.; ^ ,.x t 1 = @ ",
"@ = 1 8 x <.1.2.3.4.5.5.4.6.7.8.9.0.< 1 1 i q.:.z w.e.r.r 1 = @ ",
"@ = 1 8 x <.R [ %.t.y.y.t.u.i.p.9.0.a.= = 5 s.d.f.H e.r.r 1 = @ ",
"@ < 5 g.h.j.k.{ l.z.x.x.z.c.v.b.n.m.@ @ @ < u M.N.B.B.N.V.5 < @ ",
"@ < C.Z.A.S.D.F.G.H.J.J.H.c.v.b.n.m.@ @ @ < K.L.P.I.I.U.Y.C.< @ ",
"@ T.R.E.W.Q.!.{ l.~.^.^.~.c.v.b.n.m.@ @ @ < u /.(.).)._.`.R.T.@ ",
"+ '.].[.{.}.|.%. X~.^.^.~.c.v.b.n.m.@ @ @ + < b .XL L XXX.].'.+ ",
"= O oXOXS +X@X#X$X~.^.^.~.c.v.b.n.m.@ @ @ + + q h   %X&X*XoXO = ",
"= O oXOXS +X@X#X$X~.^.^.~.c.v.b.=Xm.m.@ @ + + q h   %X&X*XoXO = ",
"+ '.].-X;X:X>X,X,X~.^.<X1X,Xu.2X3X4X5X@ @ + = w 6X7X8X9X0X].'.+ ",
"@ qXwX: eXrXtX%. X~.^.<XyXl.u.#.uXiX4X@ @ + < e pXaXsXdXfXwXqX@ ",
"@ < u t gXC hXl.jX~.<XkXlXzXxX6.cXvXn.m.@ < 1 bXnXG G z d.u < @ ",
"@ < u t mXB MXl.jXNXBXVXCXZXAXSX7.b.n.m.@ = 1 r z H H f.d.u < @ ",
"@ < 5 g.h.j.k.{ l.yXDXFXGXHXJXKXLXb.n.m.@ < u M.N.B.B.N.V.5 < @ ",
"@ < C.Z.A.S.D.F.G.yXDXFXGXHXJXKXLXb.n.m.@ < K.L.P.I.I.U.Y.C.< @ ",
"@ T.R.E.W.Q.!.{ l.NXBXVXCXZXAXSX7.b.n.m.@ < u /.(.).)._.`.R.T.@ ",
"+ '.].[.{.}.|.%. X~.<XkXlXzXxX6.cXvXn.m.@ + < b .XL L XXX.].'.+ ",
"= O oXOXS +X@X#X$X~.^.<XyXl.u.#.uXiX4X@ @ + + q h   %X&X*XoXO = ",
"= O oXOXS +X@X#X$X~.^.<X1X,Xu.2X3X4X5X@ @ + + q h   %X&X*XoXO = ",
"+ '.].-X;X:X>X,X,X~.^.^.~.c.v.b.=Xm.m.@ @ + = w 6X7X8X9X0X].'.+ ",
"@ qXwX: eXrXtX%. X~.^.^.~.c.v.b.n.m.@ @ @ + < e pXaXsXdXfXwXqX@ ",
"@ < u t gXC hXl.jX~.^.^.~.c.v.b.n.m.@ @ @ < 1 bXnXG G z d.u < @ ",
"@ < u t gXC hXl.jX~.^.^.~.c.v.b.n.m.@ @ @ < 1 bXnXG G z d.u < @ ",
"@ = 1 8 d B MXl.jX~.^.^.~.c.v.b.n.m.@ @ @ = 1 r z H H z r 1 = @ "
};
