/* XPM */
static char * player_xpm[] = {
"32 32 352 2",
"  	c #763B36",
". 	c #743A36",
"+ 	c #6F3835",
"@ 	c #6C3735",
"# 	c #5C3033",
"$ 	c #502C32",
"% 	c #512C32",
"& 	c #633334",
"* 	c #4D2B32",
"= 	c #3F2631",
"- 	c #3D242F",
"; 	c #3E242F",
"> 	c #4C2A32",
", 	c #432731",
"' 	c #3E2530",
") 	c #3D232E",
"! 	c #3C222D",
"~ 	c #3F2530",
"{ 	c #47303B",
"] 	c #584551",
"^ 	c #5D4D5A",
"/ 	c #564756",
"( 	c #514352",
"_ 	c #514251",
": 	c #524453",
"< 	c #574551",
"[ 	c #8B8695",
"} 	c #9B9FB0",
"| 	c #858CA0",
"1 	c #798096",
"2 	c #797F94",
"3 	c #798095",
"4 	c #7A8196",
"5 	c #3C222C",
"6 	c #5D4C59",
"7 	c #9B9EAF",
"8 	c #AAB7CA",
"9 	c #8A93A8",
"0 	c #7D889E",
"a 	c #8897AF",
"b 	c #8997B0",
"c 	c #7E899E",
"d 	c #3E242E",
"e 	c #3D222C",
"f 	c #564654",
"g 	c #868BA0",
"h 	c #8A92A8",
"i 	c #635C6D",
"j 	c #5F586A",
"k 	c #7E889F",
"l 	c #7F889F",
"m 	c #5F596A",
"n 	c #868CA0",
"o 	c #564755",
"p 	c #3F2833",
"q 	c #402D3B",
"r 	c #554E60",
"s 	c #7B849B",
"t 	c #787E93",
"u 	c #4E3E4B",
"v 	c #4E3E4C",
"w 	c #7A8197",
"x 	c #524452",
"y 	c #412F3D",
"z 	c #47455A",
"A 	c #5C657E",
"B 	c #7D8CA5",
"C 	c #777D92",
"D 	c #4E3D4A",
"E 	c #463746",
"F 	c #575D74",
"G 	c #6C7D99",
"H 	c #8294AF",
"I 	c #7D869D",
"J 	c #605868",
"K 	c #605869",
"L 	c #7D879E",
"M 	c #7C869E",
"N 	c #5D5769",
"O 	c #60596A",
"P 	c #7E879F",
"Q 	c #798197",
"R 	c #3E252F",
"S 	c #4E3F4E",
"T 	c #6F758B",
"U 	c #889AB5",
"V 	c #8695AE",
"W 	c #7E879E",
"X 	c #8695AF",
"Y 	c #8594AF",
"Z 	c #7B859D",
"` 	c #7F88A0",
" .	c #8797B1",
"..	c #777F97",
"+.	c #514351",
"@.	c #939FB3",
"#.	c #9D9DA8",
"$.	c #94949F",
"%.	c #7E889D",
"&.	c #7D889D",
"*.	c #9494A0",
"=.	c #A19BA2",
"-.	c #A19DA3",
";.	c #7F8A9F",
">.	c #9697A2",
",.	c #897F86",
"'.	c #57424C",
").	c #788097",
"!.	c #9F9FA9",
"~.	c #C19D88",
"{.	c #A98470",
"].	c #5F5A65",
"^.	c #5E5A66",
"/.	c #A88471",
"(.	c #D09B78",
"_.	c #CF9C79",
":.	c #605B67",
"<.	c #AB8773",
"[.	c #AD7F67",
"}.	c #634342",
"|.	c #3C232F",
"1.	c #3D2430",
"2.	c #504252",
"3.	c #767F96",
"4.	c #A6A2A6",
"5.	c #D7A77F",
"6.	c #B7845D",
"7.	c #4E4248",
"8.	c #4D4149",
"9.	c #B68460",
"0.	c #EEA76C",
"a.	c #ECA66C",
"b.	c #4F434A",
"c.	c #B98761",
"d.	c #C4895D",
"e.	c #6B463F",
"f.	c #3B2330",
"g.	c #504251",
"h.	c #767E96",
"i.	c #A9A7AA",
"j.	c #E0B68B",
"k.	c #BF936A",
"l.	c #50464D",
"m.	c #4E464E",
"n.	c #BD936C",
"o.	c #F8BC7C",
"p.	c #F6BB7C",
"q.	c #51484E",
"r.	c #C1966D",
"s.	c #CD986A",
"t.	c #6E4B43",
"u.	c #3B232F",
"v.	c #3C2430",
"w.	c #3D242E",
"x.	c #4E404F",
"y.	c #757C94",
"z.	c #A9A9AB",
"A.	c #E4BF92",
"B.	c #D4A977",
"C.	c #7F6C5E",
"D.	c #7C695D",
"E.	c #CDA072",
"F.	c #F9BD7D",
"G.	c #F7BD7D",
"H.	c #CEA072",
"I.	c #806D5F",
"J.	c #D4AA77",
"K.	c #CF9F6E",
"L.	c #6C4C43",
"M.	c #39212D",
"N.	c #3B202B",
"O.	c #4D3E4E",
"P.	c #747C94",
"Q.	c #A8A8AB",
"R.	c #E3BE92",
"S.	c #F2BE7F",
"T.	c #D6AA78",
"U.	c #D0A273",
"V.	c #E1A56F",
"W.	c #EBA76E",
"X.	c #EAA76E",
"Y.	c #E1A570",
"Z.	c #D7AB79",
"`.	c #F1BE7F",
" +	c #CC9C6C",
".+	c #6A4941",
"++	c #381F2C",
"@+	c #4C2A31",
"#+	c #462E39",
"$+	c #55424D",
"%+	c #6C6574",
"&+	c #8992A8",
"*+	c #A5A6AD",
"=+	c #BE9F82",
"-+	c #CC9C6B",
";+	c #CE9D6C",
">+	c #C99567",
",+	c #BD835B",
"'+	c #B67A54",
")+	c #B77A55",
"!+	c #BC835A",
"~+	c #C89567",
"{+	c #D7AA7A",
"]+	c #E7BE90",
"^+	c #C9A98B",
"/+	c #816C6B",
"(+	c #53414E",
"_+	c #442E3A",
":+	c #4A2930",
"<+	c #41252E",
"[+	c #564450",
"}+	c #898493",
"|+	c #A9AEC0",
"1+	c #B2BDD0",
"2+	c #A2A3B0",
"3+	c #7C6664",
"4+	c #69473E",
"5+	c #6A483F",
"6+	c #69473F",
"7+	c #65413B",
"8+	c #633E39",
"9+	c #643F39",
"0+	c #68453D",
"a+	c #856A62",
"b+	c #B7ACA7",
"c+	c #C6C5C6",
"d+	c #AFB1BD",
"e+	c #888493",
"f+	c #564350",
"g+	c #6D3735",
"h+	c #3C212C",
"i+	c #5F4E5B",
"j+	c #A5A7B6",
"k+	c #C9D5E7",
"l+	c #C7D4E5",
"m+	c #A6AABB",
"n+	c #696171",
"o+	c #554554",
"p+	c #5B4B59",
"q+	c #5C4C5A",
"r+	c #5C4D5A",
"s+	c #5B4C59",
"t+	c #554654",
"u+	c #4D3F4E",
"v+	c #686171",
"w+	c #A3AABC",
"x+	c #C5D3E5",
"y+	c #C8D5E7",
"z+	c #442831",
"A+	c #3C212B",
"B+	c #5F4E5A",
"C+	c #A4A7B6",
"D+	c #C8D4E6",
"E+	c #C6D2E3",
"F+	c #AFB9CB",
"G+	c #878FA4",
"H+	c #7E8399",
"I+	c #9397A9",
"J+	c #A0A3B3",
"K+	c #A1A4B4",
"L+	c #878EA4",
"M+	c #ADB8CB",
"N+	c #C5D1E3",
"O+	c #C7D4E6",
"P+	c #412E3C",
"Q+	c #5B5263",
"R+	c #8D93A6",
"S+	c #ABB8CC",
"T+	c #B3C0D3",
"U+	c #AAB8CD",
"V+	c #95A6BF",
"W+	c #99AAC3",
"X+	c #B6C4D8",
"Y+	c #BECBDD",
"Z+	c #AFBCD0",
"`+	c #A6B4C9",
" @	c #42303E",
".@	c #49465B",
"+@	c #545C75",
"@@	c #647089",
"#@	c #79869F",
"$@	c #909FB7",
"%@	c #97A7BF",
"&@	c #8EA0BA",
"*@	c #99ABC3",
"=@	c #B7C6D9",
"-@	c #AFBDD1",
";@	c #8291AA",
">@	c #697994",
",@	c #3F252F",
"'@	c #443544",
")@	c #4E546C",
"!@	c #526280",
"~@	c #505F7D",
"{@	c #596581",
"]@	c #6D768D",
"^@	c #808395",
"/@	c #908B98",
"(@	c #A59AA2",
"_@	c #BAAEB3",
":@	c #ADA1A7",
"<@	c #807680",
"[@	c #685E6B",
"}@	c #536381",
"|@	c #52627F",
"1@	c #505871",
"2@	c #4F485A",
"3@	c #684E53",
"4@	c #9B6A5D",
"5@	c #B97C65",
"6@	c #BF826A",
"7@	c #BA7D67",
"8@	c #AC6F5B",
"9@	c #A46854",
"0@	c #42313F",
"a@	c #4A475C",
"b@	c #48465B",
"c@	c #3E2D3C",
"d@	c #553235",
"e@	c #8A5548",
"f@	c #A56753",
"g@	c #A36652",
"h@	c #A1634E",
"i@	c #A15D46",
"j@	c #A15B42",
"k@	c #402935",
"l@	c #43313F",
"m@	c #422F3D",
"n@	c #3E2632",
"o@	c #48323D",
"p@	c #5F515D",
"q@	c #6B626E",
"r@	c #6A616E",
"s@	c #67555F",
"t@	c #614143",
"u@	c #5F3534",
"v@	c #522C32",
"w@	c #4A3B49",
"x@	c #60677D",
"y@	c #6D7E99",
"z@	c #60667D",
"A@	c #473948",
"B@	c #3A212C",
"C@	c #643334",
"D@	c #3D222D",
"E@	c #584855",
"F@	c #8C90A2",
"G@	c #A9B7CC",
"H@	c #39202B",
"I@	c #5F4F5B",
"J@	c #A3A5B5",
"K@	c #3A202A",
"                                                                ",
"              . + @ @ @ @ @ @ @ @ @ @ @ @ @ @ @ @ + .           ",
"              + # $ $ % % % % % % % % % % % % $ $ # +           ",
"          . + & * = - - ; ; ; ; ; ; ; ; ; ; - - = * & + .       ",
"          + # > , ' ) ! ) ) ) ) ) ) ) ) ) ) ! ) ' , > # +       ",
"          @ % ~ ' { ] ^ / ( _ _ : : _ _ ( / ^ ] { ' ~ % @       ",
"          @ % ; ) < [ } | 1 2 3 4 4 3 2 1 | } [ < ) ; % @       ",
"      . + & * ) 5 6 7 8 9 0 a b c c b a 0 9 8 } ^ ! - % @       ",
"      + # > , d e f g h i j k l m m l k j i h n o ) ; % @       ",
"      @ % = = p q r s t u v 2 2 v v 2 2 v u t w x ) ; % @       ",
"      @ % ~ ~ y z A B C D v 2 2 v v 2 2 v u t w x ) ; % @       ",
"      @ % ~ ; E F G H I J K L M N N M L K O P Q x ) ; % @       ",
"      @ % R d S T H U V W W X Y Z Z Y X W `  ...( ) ; % @       ",
"      @ % ; ) +.1 @.#.$.%.&.*.=.-.-.=.*.&.;.>.,.'.) ; % @       ",
"      @ % ; ) ( ).!.~.{.].^./.(._._.(./.^.:.<.[.}.|.1.% @       ",
"      @ % ; ) 2.3.4.5.6.7.8.9.0.a.a.0.9.8.b.c.d.e.f.1.% @       ",
"      @ % ; ) g.h.i.j.k.l.m.n.o.p.p.o.n.m.q.r.s.t.u.v.% @       ",
"      @ % w.5 x.y.z.A.B.C.D.E.F.G.G.F.H.D.I.J.K.L.M.|.% @       ",
"      @ % ) N.O.P.Q.R.S.T.U.V.W.X.X.W.Y.U.Z.`. +.+++|.% @       ",
"  . + & @+#+$+%+&+*+=+-+;+>+,+'+)+)+'+!+~+{+]+^+/+(+_+@+& + .   ",
"  + # :+<+[+}+|+1+2+3+4+5+6+7+8+8+8+8+9+0+a+b+c+d+e+f+<+:+# +   ",
"g+& * ) h+i+j+k+l+m+n+O.o+p+q+r+r+r+s+t+u+v+w+x+y+j+i+h+) * & g+",
"% * z+) A+B+C+D+E+F+G+H+I+J+K+K+K+K+J+I+H+L+M+N+O+C+B+A+) z+* % ",
"= = = p P+Q+R+S+T+U+V+W+X+Y+Z+`+`+Z+Y+X+W+V+U+T+S+R+Q+P+p = = = ",
"= ~ ~  @.@+@@@#@$@%@&@*@=@-@;@>@>@;@-@=@*@&@%@$@#@@@+@.@ @~ ~ = ",
"= ~ ,@'@)@!@~@{@]@^@/@(@_@:@<@[@[@<@:@_@(@/@^@]@{@~@!@)@'@,@~ = ",
"= ~ ,@'@)@}@|@1@2@3@4@5@6@7@8@9@9@8@7@6@5@4@3@2@1@|@}@)@'@,@~ = ",
"= ~ ~ 0@a@)@)@b@c@d@e@f@g@h@i@j@j@i@h@g@f@e@d@c@b@)@)@a@0@~ ~ = ",
"= = = k@l@'@'@m@n@o@p@q@r@s@t@u@u@t@s@r@q@p@o@n@m@'@'@l@k@= = = ",
"v@* z+= ,@,@,@d d w@x@y@y@z@A@B@B@A@z@y@y@x@w@d d ,@,@,@= z+* v@",
"g+C@* = ~ ~ ~ ) D@E@F@G@G@F@o H@H@o F@G@G@F@E@D@) ~ ~ ~ = * C@g+",
"  @ % = = = = w.! I@J@D+D+J@I@K@K@I@J@D+D+J@I@! w.= = = = % @   "};
