/* XPM */
static char *_0409_1cdae406b26866c51457b03df96fd1ad894a385ea042a057758f598261f09c93[] = {
/* columns rows colors chars-per-pixel */
"32 32 59 1 ",
"  c #505E7A",
". c #515F7B",
"X c #52607C",
"o c #4F5D79",
"O c #5F6E89",
"+ c #5C6A86",
"@ c #55637F",
"# c #5B6A85",
"$ c #63718C",
"% c #6A7791",
"& c #6D7A93",
"* c #7D8CA6",
"= c #7E8DA7",
"- c #72819B",
"; c #5B6985",
": c #71809B",
"> c #8896AE",
", c #9CA9BE",
"< c #A6B2C6",
"1 c #A6B2C5",
"2 c #A5B1C5",
"3 c #8C9CB5",
"4 c #8D9DB6",
"5 c #7D8DA6",
"6 c #5F6D88",
"7 c #5E6D88",
"8 c #7C8CA6",
"9 c #97A7BE",
"0 c #ADBACE",
"q c #B7C3D6",
"w c #B7C3D5",
"e c #B6C2D5",
"r c #90A0B9",
"t c #97A6BD",
"y c #99A8BF",
"u c #8B9BB4",
"i c #7C8BA5",
"p c #7D8DA7",
"a c #5A6984",
"s c #717F9A",
"d c #5A6884",
"f c #5D6C87",
"g c #5F6D89",
"h c #606E8A",
"j c #54627E",
"k c #596884",
"l c #52607D",
"z c #6C7992",
"x c #697690",
"c c #62708B",
"v c #6D7B94",
"b c #6C7A93",
"n c #A6B1C5",
"m c #A7B2C5",
"M c #A7B2C6",
"N c #8796AE",
"B c #70809A",
"V c #8A9AB3",
"C c white",
/* pixels */
"           .XX. oooooooo .XX.   ",
"OOOOOOOOOOO+@@#$%&&&&&&%$#@@+OOO",
"*********==-#;:>,<1221<,>:;#-==*",
"33333333344567890qweewq098765443",
"33333333344567*rtyyyyyytr*765443",
"33333333344566543uuuuuu345665443",
"33333333344566544333333445665443",
"iiii88558pp:aa:pp888558**sdds**i",
"ffff7ghhg77;jj;7777ghhg77kllkfff",
"zzzxcajj;77ghhg7777;jjacx&vvbzzz",
"nmM,NBda:pp855888pp:adBN,MMMnnnn",
"ewq0987654433333344567890qweeeee",
"yyytr*7654433333344567*rtyyyyyyy",
"uuu3456654433333344566543uuuuuuu",
"33344566544333333445665443333333",
"888pp:aa:pp85588i**sdds**8558888",
"77777;jj;77ghhg7fffkllk77ghhg777",
"77777ghhg77;jjacxzzbvv&xcajj;777",
"888888558pp:adBN,MmnMMM,NBda:pp8",
"33333333344567890qweewq098765443",
"33333333344567*rtyyyyyytr*765443",
"33333333344566543uuuuuu345665443",
"33333333344566544333333445665443",
"iiii88558pp:aa:pp888558**sdds**i",
"ffff7ghhg77;jj;7777ghhg77kllkfff",
"zzzxcajj;77ghhg7777;jjacx&vvbzzz",
"nmM,NBda:pp855888pp:adBN,MMMnnnn",
"ewq0987654433333344567890qweeeee",
"yyytr*7654433333344567*rtyyyyyyy",
"VVVu3877833uuuuuu3387783uVVVVVVV",
"VVVu3877833uuuuuu3387783uVVVVVVV",
"uuu33877833uuuuuu33877833uuuuuuu"
};
